# xmcd CD database file
#
# Track frame offsets:
#	150
#	20153
#	44453
#	62528
#	78428
#	99503
#	121178
#	141428
#	157028
#	177503
#	206003
#	225053
#	239228
#
# Disc length: 3394 seconds
#
# Revision: 1
# Processed by: cddbd v1.5.2PL0 Copyright (c) Steve Scherf et al.
# Submitted via: CDex 1.51
#
DISCID=b30d400d
DTITLE=Pedro Guzman - Tiple Jazz
DYEAR=2004
DGENRE=Jazz
TTITLE0=Profeta Escondida
TTITLE1=Mao Amor
TTITLE2=Micaela
TTITLE3=Achiote
TTITLE4=A Castañer
TTITLE5=Otra vez María
TTITLE6=Boca Chica
TTITLE7=10 de Marzo
TTITLE8=Mack the knife
TTITLE9=All of me
TTITLE10=Como tu quieras
TTITLE11=Cautiva
TTITLE12=Playa de Luquillo
EXTD=YEAR: 2004
EXTT0=
EXTT1=
EXTT2=
EXTT3=
EXTT4=
EXTT5=
EXTT6=
EXTT7=
EXTT8=
EXTT9=
EXTT10=
EXTT11=
EXTT12=
PLAYORDER=
